<svg id="Capa_1" enable-background="new 0 0 512 512" height="512" viewBox="0 0 512 512" width="512" xmlns="http://www.w3.org/2000/svg"><g><g><g><g><g><g><g><circle cx="256" cy="256" fill="#a3d4ff" r="256"/></g></g></g></g></g></g><path d="m506.54 308.84-167.521-167.521-63.685 41.635-26.814-26.815-192.819 170.403 185.009 185.009c5.059.298 10.157.449 15.29.449 123.271 0 226.191-87.127 250.54-203.16z" fill="#65b1fc"/><g><path d="m114.321 273.625-58.62 52.916s58.62 18.164 200.299 18.164 200.299-18.164 200.299-18.164l-58.62-52.916-141.679-21.054z" fill="#b46e5a"/></g><g><path d="m456.299 326.542-58.62-52.917-141.679-21.054-.127.019v92.116h.127c141.679 0 200.299-18.164 200.299-18.164z" fill="#915041"/></g><g><path d="m125.579 235.742c-7.129 21.578-11.258 37.883-11.258 37.883h283.358s-4.13-16.306-11.258-37.883z" fill="#ffce00"/></g><g><path d="m386.421 235.742h-130.548v37.883h141.806s-4.13-16.306-11.258-37.883z" fill="#fdba12"/></g><g><path d="m327.38 133.027c-39.055-17.185-71.38 32.806-71.38 32.806s-32.325-49.991-71.38-32.806c-24.861 10.939-46.554 64.92-59.041 102.715h260.841c-12.485-37.796-34.179-91.777-59.04-102.715z" fill="#c38778"/></g><g><path d="m255.873 235.742h130.547c-12.486-37.795-34.179-91.776-59.041-102.715-39.054-17.185-71.379 32.806-71.379 32.806z" fill="#a65d4e"/></g></g></svg>